<?xml version="1.0" encoding="UTF-8" standalone="no"?>
<!-- Created with Inkscape (http://www.inkscape.org/) -->

<svg
   version="1.1"
   id="svg1"
   width="463.66299"
   height="463.66312"
   viewBox="0 0 463.66299 463.66312"
   xmlns="http://www.w3.org/2000/svg"
   xmlns:svg="http://www.w3.org/2000/svg">
  <defs
     id="defs1" />
  <g
     id="g1"
     transform="translate(-61.344431,-12.647255)">
    <path
       style="fill:#58a4b0;fill-opacity:1"
       d="m 317.14444,476.01042 c 0,-0.57947 11.12574,-33.84633 16.40834,-49.06227 13.10471,-37.74666 24.1161,-70.00315 25.85875,-75.75 l 2.04684,-6.75 h 9.34303 c 5.13867,0 9.34304,0.3847 9.34304,0.8549 0,0.47019 -4.30381,13.40769 -9.56403,28.75 -5.26021,15.3423 -14.2369,41.6201 -19.9482,58.3951 -5.7113,16.775 -11.48425,33.425 -12.82879,37 l -2.44461,6.5 -9.10718,0.28753 c -5.00896,0.15814 -9.10719,0.0568 -9.10719,-0.22526 z M 136.14443,233.55656 V 13.664959 l 2.25,-0.47443 c 6.57115,-1.385576 157.49728,0.13817 165.97173,1.67565 25.18814,4.56976 48.92875,19.64943 61.08253,38.79868 26.59945,41.90955 22.92188,125.309841 -7.06979,160.329601 l -6.26554,7.31596 5.06951,4.31886 c 20.0437,17.07583 29.38861,42.2568 29.436,79.31887 l 0.0256,20 -9.25,0.28753 -9.25,0.28752 v -16.46516 c 0,-44.19582 -12.8382,-67.37387 -46.82855,-84.54411 l -4.32855,-2.18657 9.10038,-6.05637 c 29.8378,-19.85725 36.45968,-36.5223 35.81716,-90.13975 -0.67872,-56.635401 -14.57165,-79.290481 -55.46614,-90.448081 l -9.79433,-2.67227 -69.90975,-0.33192 c -56.56794,-0.26858 -70.06718,-0.0837 -70.73469,0.96863 -0.45372,0.7153 -0.83184,91.188051 -0.84026,201.050551 l -0.0153,199.75 h 48.96445 48.96446 l 16.53555,9.09969 c 9.09455,5.00483 16.53555,9.27983 16.53555,9.5 0,0.22017 -33.75,0.40031 -75.00001,0.40031 h -75.00001 z m 168.50001,208.88625 c -3.3,-1.59917 -17.1375,-8.29256 -30.75,-14.87419 l -24.75,-11.96661 v -7.87976 -7.87977 l 14.25,-6.66885 c 7.8375,-3.66786 21.9,-10.27323 31.25,-14.6786 9.35,-4.40536 17.35439,-8.0181 17.78753,-8.02831 0.43314,-0.0102 0.65814,4.14393 0.5,9.23143 l -0.28753,9.25 -3.5,1.77546 c -1.925,0.9765 -10.82871,5.28029 -19.78602,9.56397 l -16.28601,7.78851 20.03601,9.63263 20.03602,9.63263 v 9.0534 c 0,10.40511 0.19896,10.26355 -8.5,6.04806 z m 82.14185,-0.74466 c -0.34091,-2.0625 -0.62479,-6.09682 -0.63084,-8.96515 l -0.011,-5.21514 20.1386,-9.76061 20.13859,-9.7606 -20.13859,-9.72467 -20.1386,-9.72467 v -8.49056 c 0,-11.17516 -2.48937,-11.56038 32.87154,5.08671 l 31.12846,14.65455 v 7.74351 c 0,9.46525 3.10171,7.22519 -34.36759,24.82033 -32.6284,15.32192 -28.23506,13.90706 -28.99056,9.3363 z m -170.64186,-127.75 V 253.2993 l 31.75,0.32442 c 35.58227,0.36359 35.70546,0.38664 45.1195,8.44471 10.51513,9.00057 12.38085,17.79883 11.95564,56.37972 l -0.32513,29.5 -3.12193,6.5886 c -8.29675,17.50966 -13.22406,19.32297 -53.62808,19.73583 l -31.75,0.32442 z m 61.61826,38.93821 c 7.06698,-5.28271 6.88175,-4.23463 6.88175,-38.93821 0,-42.41011 1.12866,-40.83342 -29.57012,-41.30829 l -19.92989,-0.30828 v 40.35828 c 0,30.95042 0.29139,40.65093 1.25,41.61368 2.347,2.35712 37.95083,1.13742 41.36826,-1.41718 z M 216.14443,143.49346 V 86.538769 l 3.55778,-0.66744 c 11.05901,-2.07469 56.79579,0.13262 63.25551,3.05278 14.92294,6.74601 17.47,13.578821 17.97522,48.220801 0.84157,57.70473 -4.19009,63.30324 -56.89385,63.30324 h -27.89466 z m 56.90755,36.00186 c 7.54376,-3.84854 8.34047,-7.4227 8.37078,-37.55242 0.0381,-37.8877 -3.03032,-40.6363 -41.02833,-36.75166 l -5.25,0.53672 v 36.89232 36.89232 l 2.25,0.90439 c 4.74521,1.90734 31.46607,1.21666 35.65755,-0.92167 z"
       id="path1" />
  </g>
</svg>
