<?xml version="1.0" encoding="UTF-8" standalone="no"?>
<!-- Created with Inkscape (http://www.inkscape.org/) -->

<svg
   version="1.1"
   id="svg1"
   width="603.98871"
   height="752.81879"
   viewBox="0 0 603.98871 752.81879"
   xmlns="http://www.w3.org/2000/svg"
   xmlns:svg="http://www.w3.org/2000/svg">
  <defs
     id="defs1" />
  <g
     id="g1"
     transform="translate(-44.5,-43.081412)">
    <path
       style="fill:#58a4b0;fill-opacity:1"
       d="m 44.940896,795.41137 c -0.03251,-0.50125 -0.145008,-169.7281 -0.25,-376.05966 L 44.5,44.203412 48.889571,43.601706 C 55.247287,42.730214 299.35283,43.019851 366.5,43.978558 c 51.15427,0.730366 58.43579,1.037962 71,2.999284 27.87562,4.351493 61.3996,18.02772 85.46066,34.863983 C 566.72835,112.46742 593.96098,151.4473 607.60575,203 c 6.68045,25.24006 8.55641,47.12552 6.43344,75.05413 -3.13254,41.20993 -18.10447,78.37944 -45.20614,112.22933 -4.30818,5.3809 -7.83305,9.97921 -7.83305,10.21846 0,0.23924 2.51127,2.29017 5.58059,4.55762 8.88575,6.56428 26.04981,23.57098 34.75915,34.44046 21.75491,27.15068 33.56901,50.96734 42.41172,85.5 l 4.73727,18.5 -0.015,31.5 -0.015,31.5 -3.71505,15 c -2.04327,8.25 -4.17422,16.9292 -4.73542,19.2871 -4.84352,20.34999 -23.55767,54.15646 -42.78988,77.29847 -23.93718,28.80346 -64.02682,55.78786 -100.05059,67.34421 -25.48899,8.17681 -41.28167,9.5095 -116.41813,9.82417 -47.23588,0.19783 -58.75031,-0.005 -58.75,-1.03561 5.8e-4,-1.92603 5.41858,-19.63057 8.78848,-28.71834 l 2.96653,-8 61.37269,-0.58734 c 40.11327,-0.38389 63.79748,-0.99886 68.37269,-1.77534 10.82541,-1.83724 33.02105,-8.829 43.08352,-13.57157 18.34974,-8.64846 35.01797,-20.52869 50.72342,-36.15294 26.7218,-26.58364 42.36158,-55.51794 50.76245,-93.91281 3.11751,-14.24806 3.28161,-16.02766 3.27352,-35.5 -0.008,-18.24548 -0.30966,-22.03967 -2.74668,-34.5 -7.24096,-37.02245 -27.6712,-74.20618 -53.484,-97.34271 -11.83509,-10.60803 -17.31334,-14.59111 -34.14114,-24.82311 -7.99091,-4.8588 -15.86591,-9.84572 -17.5,-11.08205 l -2.97109,-2.24787 3,-2.62624 c 41.45241,-36.28792 61.05914,-66.66487 70.17913,-108.72935 3.22834,-14.89024 3.76626,-19.26585 4.08447,-33.22482 0.3471,-15.22635 0.17679,-17.02363 -3.22179,-34 -5.55985,-27.77229 -13.73502,-47.86107 -28.41906,-69.834 C 524.37987,125.05421 494.30474,102.75787 454.18803,89.433619 430.83734,81.677987 439.68065,82 250.04133,82 H 82.185099 l -0.342549,5.75 c -0.188403,3.1625 -0.224374,144.2694 -0.07994,313.5709 0.219173,256.90218 0.484599,307.76781 1.604589,307.5 C 84.105289,708.6444 90.267978,702.65 97.062068,695.5 112.42408,679.33324 226.45667,562.38939 246.1482,542.60767 251.01669,537.71688 255,533.3341 255,532.86814 c 0,-1.55328 -16.10751,-16.26137 -22.5188,-20.56237 -9.89987,-6.64131 -11.51485,-10.25099 -7.07154,-15.80577 l 2.39973,-3 50.72968,-0.27696 c 55.49601,-0.30298 54.62264,-0.38862 55.74177,5.46574 0.91436,4.7832 -1.5972,8.77341 -8.43786,13.40555 -3.48864,2.36232 -10.53324,8.01907 -15.65466,12.57054 -5.12143,4.55147 -13.22143,10.61147 -18,13.46666 -9.07626,5.42305 -18.68126,14.67364 -75.19189,72.41746 -36.19272,36.98254 -110.21253,113.2607 -126.212288,130.06304 -8.19515,8.60624 -10.813416,12.91355 -9.319268,15.33113 C 81.91674,756.6743 113.1747,757 182.89086,757 h 100.77282 l 3.56475,-9.75 c 1.96061,-5.3625 4.53243,-12.675 5.71517,-16.25 2.15887,-6.52554 14.10791,-41.63626 24.3332,-71.5 6.14159,-17.93696 13.25931,-39.14544 18.03561,-53.74018 l 3.18759,-9.74018 11.82946,-0.01 11.82945,-0.01 -0.68714,3.25 c -0.37793,1.7875 -1.57685,5.725 -2.66427,8.75 -1.08742,3.025 -5.51982,16.075 -9.84977,29 -4.32994,12.925 -10.64595,31.6 -14.03556,41.5 -3.38961,9.9 -9.90692,29.475 -14.4829,43.5 -4.57599,14.025 -11.71385,35.4 -15.86191,47.5 -4.14806,12.1 -7.5499,22.7875 -7.55964,23.75 -0.0168,1.65428 -5.22753,1.7501 -95.26772,1.75176 -52.3875,9.6e-4 -109.0875,0.29858 -126,0.66137 -18.310568,0.39277 -30.77391,0.29093 -30.809104,-0.25176 z M 285.78324,522.60416 C 290.74591,520.0834 300,512.47461 300,510.91501 300,510.39142 291.23064,510 279.5,510 c -11.275,0 -20.5,0.36172 -20.5,0.80383 0,2.25128 10.12417,9.90886 16.5,12.48003 5.1681,2.08414 4.79321,2.10892 10.28324,-0.6797 z M 239.5,699.96742 c -19.25,-9.7546 -35.5625,-18.25553 -36.25,-18.89096 -0.80959,-0.74826 -1.25,-4.12247 -1.25,-9.57693 0,-7.4036 0.26746,-8.6708 2.21261,-10.48297 1.21693,-1.13375 11.90443,-6.96504 23.75,-12.95842 11.84556,-5.99338 26.90831,-13.6333 33.47277,-16.9776 6.56446,-3.3443 12.52696,-6.08054 13.25,-6.08054 1.0122,0 1.31462,2.72596 1.31462,11.84975 v 11.84975 l -14.25,6.30538 c -15.94075,7.05352 -31.81097,14.65609 -32.92977,15.77489 -1.41152,1.41152 0.72194,2.93766 7.17977,5.13593 3.575,1.21695 13.925,5.89626 23,10.39847 l 16.5,8.18583 0.28174,11.75 c 0.15495,6.4625 -0.0701,11.68319 -0.5,11.60153 -0.42996,-0.0817 -16.53174,-8.1295 -35.78174,-17.88411 z m 135.5,6.8307 c 0,-6.76884 0.43768,-11.00488 1.25,-12.09808 1.31625,-1.77137 27.01901,-14.70077 37.25,-18.73807 9.87047,-3.89503 11.81281,-7.07544 5.20717,-8.52629 -1.71916,-0.37759 -5.3955,-1.91451 -8.16965,-3.41538 -2.77415,-1.50087 -6.16747,-3.07573 -7.54072,-3.49968 -1.37324,-0.42395 -7.2218,-3.01206 -12.9968,-5.75137 -5.775,-2.7393 -11.5125,-5.37187 -12.75,-5.85015 -2.15288,-0.83206 -2.25,-1.36708 -2.25,-12.39435 0,-8.5305 0.32476,-11.53578 1.25,-11.56719 0.6875,-0.0233 17.29239,7.93446 36.89976,17.68401 l 35.64975,17.72645 0.59471,7.06599 c 1.12399,13.35449 1.56524,12.80797 -18.42073,22.81513 -15.66969,7.84597 -51.5325,25.18984 -54.72349,26.46523 -0.95197,0.38049 -1.25,-1.98377 -1.25,-9.91625 z m 71,-93.24083 c -6.35699,-1.78542 -17.24557,-6.91054 -18.86484,-8.87944 -0.90181,-1.09651 -1.13704,-2.76524 -0.69337,-4.91869 1.81047,-8.78751 1.74347,-10.21016 -0.64797,-13.75916 -2.83997,-4.21464 -5.35205,-4.68748 -13.57837,-2.55583 -3.30228,0.85571 -6.70847,1.55583 -7.56933,1.55583 -2.78524,0 -6.71854,-5.2644 -12.21971,-16.35507 -6.21375,-12.52727 -6.31321,-11.76609 2.6801,-20.51181 5.30861,-5.16247 6.00049,-6.27323 5.71654,-9.17752 -0.27906,-2.85425 -1.34438,-4.00595 -7.82305,-8.45736 -5.20796,-3.57832 -7.60585,-5.87963 -7.84637,-7.53033 -0.63745,-4.37499 5.47572,-22.95569 9.04582,-27.49434 C 395.99195,493.19478 396.80305,493 404.5,493 c 7.83479,0 8.48385,-0.16401 10.42742,-2.63486 2.44562,-3.1091 2.62278,-7.21911 0.60078,-13.9377 l -1.4718,-4.89042 3.2218,-3.35362 c 4.16277,-4.3331 9.77587,-7.60906 19.36278,-11.30064 l 7.716,-2.97117 6.09842,6.0442 c 8.8328,8.7543 12.1192,8.25714 19.53878,-2.95579 3.27065,-4.9428 4.87258,-6 9.09161,-6 4.24746,0 15.53271,3.28277 21.41421,6.22918 7.29341,3.65372 7.5,4.05153 7.5,14.44199 v 9.36119 l 3.45836,1.64917 c 3.216,1.53361 3.81972,1.53247 8.61483,-0.0162 6.09891,-1.96973 7.97836,-2.05462 11.36144,-0.51319 3.10154,1.41316 9.6707,11.30123 13.07664,19.68329 2.95333,7.26817 2.80233,7.78596 -4.66504,15.9969 -5.37002,5.90475 -6.76184,9.35947 -4.74818,11.78578 0.72676,0.87569 4.03951,3.42357 7.36166,5.66196 3.32216,2.23838 6.3709,4.55356 6.77498,5.14485 1.26946,1.85758 0.83516,6.30725 -1.15051,11.78754 -1.0537,2.90813 -2.63227,7.76251 -3.50793,10.78751 -0.87567,3.025 -2.53878,6.625 -3.69582,8 -1.91104,2.27105 -2.94059,2.53205 -11.24207,2.84997 -5.0261,0.19249 -9.75241,0.85287 -10.50292,1.46752 -1.07956,0.88414 -1.22065,3.33782 -0.67553,11.74848 l 0.68902,10.63093 -3.19435,2.68786 c -5.52435,4.64844 -23.41096,13.06925 -25.29155,11.90698 -0.59786,-0.3695 -3.74322,-3.5113 -6.98968,-6.98178 C 479.7258,601.09002 477.00601,599 475.46207,599 c -3.27775,0 -7.86401,4.21125 -11.49201,10.55233 L 460.85322,615 455.67661,614.9106 C 452.82947,614.8614 448.475,614.25242 446,613.55729 Z M 456.18116,594.25 c 2.55829,-4.31956 4.26541,-6.04692 6.86216,-6.94356 3.77644,-1.30396 22.95011,-1.7685 22.96735,-0.55644 0.006,0.4125 1.98519,2.8909 4.39851,5.50756 4.701,5.0971 5.50428,5.2091 10.84082,1.51162 3.21973,-2.23082 3.66632,-6.64034 1.25664,-12.40753 -0.82135,-1.96577 -1.17598,-4.08881 -0.78806,-4.71788 3.42798,-5.55908 12.88147,-16.91619 14.61109,-17.55329 1.19368,-0.43969 4.97585,-0.58634 8.40483,-0.32589 l 6.2345,0.47355 2.0155,-4.70198 c 1.10852,-2.58608 2.00212,-5.22716 1.98576,-5.86907 -0.0164,-0.6419 -2.66512,-2.67567 -5.88614,-4.5195 -3.29363,-1.88538 -6.40145,-4.511 -7.10193,-6 -0.68504,-1.45617 -1.47154,-7.03715 -1.74777,-12.40217 l -0.50225,-9.75458 4.63391,-4.31531 c 4.8776,-4.54223 5.60288,-6.99677 3.61353,-12.22915 -0.97981,-2.57711 -1.24817,-2.66285 -6.75,-2.15665 -3.15128,0.28994 -6.63153,0.81692 -7.73387,1.17108 -1.46565,0.47088 -3.95319,-0.81416 -9.25646,-4.7818 C 493.72115,485.80989 493,484.65436 493,475.66982 v -7.51472 l -3.48265,-1.14937 c -5.63277,-1.85898 -7.63253,-1.01038 -11.54777,4.90032 -4.08242,6.16308 -5.01847,6.64953 -14.53935,7.55592 -3.81163,0.36286 -8.13212,0.8853 -9.6011,1.16096 -2.16244,0.40581 -3.73493,-0.4624 -8.26058,-4.56086 C 442.4942,473.27793 439.33789,471 438.55451,471 c -5.63726,0 -9.45425,5.54224 -7.42938,10.78742 1.57553,4.08124 1.2884,8.64141 -0.74583,11.84514 -3.65289,5.75296 -7.72866,10.33754 -11.53578,12.97588 -3.78801,2.6251 -4.04375,2.66296 -9.36481,1.38645 -4.97652,-1.19385 -5.65141,-1.14858 -7.47458,0.50137 -2.51159,2.27296 -2.73036,8.65091 -0.36466,10.6313 0.9017,0.75484 3.7142,2.49801 6.25,3.87371 4.31194,2.33927 4.65343,2.82499 5.27292,7.5 0.36432,2.7493 0.70182,7.98168 0.75,11.62751 C 414,548.75755 414,548.75755 409,554 c -5.54074,5.80941 -5.97455,7.68708 -2.91844,12.63197 2.35107,3.80411 4.63548,4.21986 10.2642,1.86803 5.59206,-2.33651 7.41116,-1.87276 14.52039,3.70173 11.01677,8.63848 12.48124,11.14296 10.20961,17.46012 -1.87562,5.21586 -1.0195,7.13469 3.99116,8.94538 6.33785,2.29031 7.43099,1.86176 11.11424,-4.35723 z m -1.00182,-29.47563 c -7.66435,-3.01914 -14.41758,-9.52823 -18.63788,-17.96412 -6.31712,-12.62717 -4.64602,-24.31844 5.10411,-35.70928 4.52865,-5.29071 9.47315,-8.46481 16.38252,-10.51667 12.69726,-3.77068 26.77434,0.30515 34.86962,10.09604 6.20951,7.51013 8.10229,12.7776 8.10229,22.54812 0,9.45614 -1.13824,13.44188 -5.74258,20.10856 -7.86503,11.38788 -26.618,16.73954 -40.07808,11.43735 z m 23.51429,-16.39894 c 6.19492,-4.98924 8.44719,-9.76916 8.05188,-17.08824 -0.27627,-5.11502 -0.86794,-6.88199 -3.3485,-10 -6.91565,-8.69279 -18.1447,-10.65474 -26.67358,-4.66042 -9.25353,6.50363 -11.57974,17.94722 -5.47343,26.92607 4.55806,6.70226 8.57046,8.65044 16.94363,8.22681 5.69841,-0.28831 7.25957,-0.79445 10.5,-3.40422 z M 271.5,480.02144 c -39.96977,-0.49623 -42.13287,-0.61812 -44.74868,-2.52144 -5.26225,-3.82892 -4.60979,-9.78664 1.47829,-13.49856 3.14669,-1.91855 5.08235,-1.99411 51.176,-1.9977 l 47.90561,-0.004 3.34439,2.55089 c 2.8092,2.14268 3.34439,3.19049 3.34439,6.54775 0,6.84436 -5.80488,10.24348 -16.5,9.6618 -2.2,-0.11966 -22.9,-0.45221 -46,-0.739 z m -46.16315,-31.02047 c -1.76671,-0.71241 -2.55698,-2.67094 -4.31206,-10.68662 C 213.36297,403.32167 210.56835,396.12288 197.99855,379 178.13233,351.93776 171.8083,340.28783 167.26121,322.37657 164.73893,312.44118 164.5037,309.94242 164.54276,293.5 c 0.0522,-21.97321 1.98348,-32.2941 8.9081,-47.60542 6.03165,-13.33684 12.13606,-22.42593 22.0312,-32.80312 15.81642,-16.58692 33.48605,-27.28127 55.01794,-33.29901 10.51562,-2.93891 36.69303,-3.6081 50.55255,-1.29232 5.7461,0.96012 12.47245,2.54167 14.94745,3.51457 36.80643,14.46822 61.53446,40.13897 73.49621,76.29815 3.28486,9.92981 4.49231,17.19853 5.1807,31.18715 1.47259,29.9246 -6.82698,53.40943 -29.7205,84.09836 -14.97076,20.06843 -18.23501,27.00721 -23.40813,49.75851 -3.62134,15.92659 -7.08681,24.86833 -10.08368,26.01834 -2.52194,0.96776 -103.68434,0.61103 -106.12775,-0.37424 z m 57.05421,-21.35209 C 282.6714,424.817 283.40486,416.425 284.02099,409 c 0.61612,-7.425 1.97411,-19.8 3.01775,-27.5 1.97726,-14.58826 3.93318,-35.27192 3.95094,-41.78078 L 291,335.93844 278.75,336.21922 266.5,336.5 l 0.28135,6.5 c 0.15474,3.575 1.1621,13.7 2.23858,22.5 1.07648,8.8 3.04801,27.42411 4.38117,41.38691 1.55236,16.2587 2.85474,25.65318 3.62211,26.12743 2.91196,1.7997 4.85035,-0.13783 5.36785,-5.36546 z M 258.99241,429.75 c -0.004,-1.7875 -0.46687,-7.075 -1.02822,-11.75 -0.56134,-4.675 -1.68269,-15.20721 -2.49188,-23.40491 -4.86146,-49.25034 -5.85135,-56.57874 -7.81087,-57.82549 -0.63879,-0.40644 -3.28206,-0.74587 -5.87393,-0.75429 -11.22492,-0.0365 -24.94721,-9.1661 -28.22174,-18.7763 -3.51632,-10.31983 -0.74346,-21.25594 7.20653,-28.42246 4.90765,-4.42401 9.3774,-5.80355 18.82766,-5.81097 6.24793,-0.005 7.57912,0.34152 11.09275,2.88678 8.16293,5.91319 12.20193,13.76501 13.03441,25.33889 0.55442,7.70802 0.56544,7.73297 3.66449,8.30014 1.70961,0.31289 8.05839,0.43382 14.10839,0.26875 l 11,-0.30014 0.80431,-5 c 3.48523,-21.66582 12.06075,-31.7546 26.98492,-31.74672 11.16402,0.006 19.94945,5.94952 23.76003,16.07444 2.67664,7.11196 2.2913,13.56633 -1.27491,21.35483 -2.07467,4.53101 -3.70956,6.41797 -8.06773,9.31163 C 328.10305,333.8787 321.48187,336 314.40009,336 c -2.90513,0 -5.48763,0.3375 -5.7389,0.75 -0.25126,0.4125 -0.9649,6.6 -1.58586,13.75 -1.14207,13.15036 -4.41072,42.56534 -6.05614,54.5 -0.49288,3.575 -1.21127,11.35282 -1.59642,17.28405 L 298.7225,433.0681 310.11125,432.78405 321.5,432.5 322.23465,429 c 0.40406,-1.925 1.82047,-8.94267 3.14758,-15.59483 3.89357,-19.51664 6.42419,-24.6652 24.8253,-50.50724 13.9036,-19.52585 17.12524,-25.33159 21.43633,-38.63043 6.80889,-21.00407 7.08869,-38.95897 0.91581,-58.7675 -5.20282,-16.69563 -11.34345,-28.00962 -20.48677,-37.74645 -15.46518,-16.46906 -33.12811,-26.81145 -53.39992,-31.26792 -11.31532,-2.48752 -36.27602,-1.68963 -46.09998,1.47362 -17.62224,5.67425 -36.2352,17.86384 -47.073,30.82804 -12.57908,15.04712 -19.82905,31.34351 -23.03244,51.77205 -1.90091,12.12241 -1.62557,18.428 1.48797,34.07547 2.72365,13.68803 10.75142,29.49989 24.33587,47.93305 14.78082,20.05653 18.10657,26.53508 22.68921,44.19839 2.10242,8.10356 4.13598,16.98375 4.51903,19.73375 0.38304,2.75 1.21483,5.33061 1.8484,5.73469 0.63358,0.40408 5.76446,0.74158 11.40196,0.75 L 259,433 Z m -12.04679,-115.5 c -0.0299,-2.6125 -0.82754,-6.76772 -1.7725,-9.23383 -1.96548,-5.12938 -4.83561,-6.67727 -10.43376,-5.62705 -2.82226,0.52946 -3.79017,1.31787 -4.65159,3.78895 -3.51292,10.07716 0.83638,15.48079 12.66223,15.73174 L 247,319 Z m 78.03188,2.27036 c 1.0345,-0.9362 2.62675,-3.27395 3.53834,-5.19499 1.39062,-2.93051 1.4573,-3.97599 0.4142,-6.49426 -0.68378,-1.6508 -1.87991,-3.63812 -2.65807,-4.41628 -2.02323,-2.02324 -8.61073,-1.80298 -10.562,0.35315 -2.73545,3.02265 -5.66503,10.55204 -5.68801,14.61893 l -0.022,3.88691 6.5483,-0.52563 c 4.15098,-0.3332 7.2369,-1.14881 8.4292,-2.22783 z m 92.52775,125.90691 c -8.54035,-3.54478 -8.91134,-4.07319 -6.82054,-9.71446 l 1.73073,-4.66975 -2.95772,-3.14469 C 405.5438,420.73703 401.21466,419 394.75742,419 h -5.30681 l -1.76913,-8.59472 c -1.94749,-9.46115 -1.59486,-10.7726 3.1518,-11.72194 3.55703,-0.7114 5.16672,-4.18754 5.16672,-11.15759 0,-4.98146 -0.27236,-5.60464 -3.67544,-8.40975 l -3.67544,-3.02961 4.68341,-7.04319 c 4.25215,-6.39465 4.98194,-7.03402 7.92544,-6.94352 1.78312,0.0548 4.36703,0.42048 5.74203,0.81258 2.61599,0.74597 9.64222,-0.53722 11.69558,-2.13595 0.65757,-0.51198 1.75305,-3.42194 2.43441,-6.46657 C 422.87387,346.51727 423.64834,346 433.57143,346 H 442 v 2.87264 c 0,2.1236 1.17384,3.95465 4.50181,7.02226 6.83717,6.30229 8.437,6.76497 12.90571,3.73242 6.80237,-4.61621 7.40846,-4.52518 13.27131,1.99328 2.90844,3.23367 5.29552,6.20304 5.30462,6.59861 0.009,0.39556 -0.95845,2.58978 -2.15012,4.87604 -2.13221,4.09074 -2.89288,11.38135 -1.4338,13.74219 0.40307,0.65218 3.17807,2.74998 6.16667,4.66176 6.08821,3.89458 6.50763,5.39525 4.33687,15.51718 -1.17385,5.47344 -2.2269,6.34407 -8.99314,7.43527 -7.23189,1.16629 -12.14456,10.50438 -8.80705,16.74058 1.65735,3.09679 -0.25486,6.22311 -5.27323,8.62133 -7.72577,3.69207 -9.17307,3.70182 -13.28723,0.0895 -2.92504,-2.56822 -4.81318,-3.34394 -8.98051,-3.68952 l -5.27676,-0.43759 -3.3121,4.612 c -3.85983,5.37473 -5.01159,5.54913 -13.4678,2.03928 z m 27.12671,-28.34749 c 4.4869,-2.03748 9.2641,-8.07895 11.27955,-14.26469 2.19827,-6.74682 -2.52654,-16.49618 -9.82313,-20.26939 -7.01814,-3.62922 -18.36022,-2.30004 -23.9357,2.80503 -5.73487,5.25101 -7.74179,14.49821 -4.58866,21.14293 2.3094,4.86671 8.15428,11.31024 10.70669,11.80332 5.51066,1.06455 12.47785,0.54623 16.36125,-1.2172 z M 105.02638,302 c -2.40717,-0.34649 -3.86095,-1.26753 -4.73526,-3 -1.845658,-3.65726 -1.580439,-9.42114 0.55484,-12.0581 1.67172,-2.06448 2.89111,-2.32273 12.91796,-2.73586 6.08959,-0.2509 15.3066,-0.1387 20.48223,0.24933 l 9.41025,0.70552 1.27103,3.51498 c 1.51393,4.1867 0.60318,12.18329 -1.47857,12.98213 -1.83961,0.70592 -33.91098,0.9914 -38.42248,0.342 z m 308.58061,-1.58179 c -1.29119,-3.36479 -0.64079,-13.14527 0.96266,-14.47601 1.811,-1.503 31.24976,-2.64625 38.83828,-1.50828 L 458,285.12255 v 6.85694 C 458,302.82793 459.85903,302 435.5,302 c -18.48758,0 -21.36582,-0.20796 -21.89301,-1.58179 z M 161.87545,189.20311 C 151.23195,178.61581 147,173.74598 147,172.08546 147,169.43344 153.89629,162 156.35668,162 160.3528,162 188,189.32547 188,193.2751 188,195.95434 180.75195,204 178.33832,204 c -0.87308,0 -8.28138,-6.6586 -16.46287,-14.79689 z m 212.16666,9.95173 C 371.81895,197.04 370,194.54578 370,193.61214 c 0,-3.72258 15.89476,-21.34941 26.09439,-28.93792 4.69144,-3.49043 6.85191,-3.37295 10.58945,0.57578 6.63412,7.009 6.80958,6.458 -6.36923,20.00144 -19.78256,20.32991 -19.61182,20.23955 -26.2725,13.9034 z m -98.27127,-38.90897 c -4.21138,-0.57819 -4.97001,-4.88361 -4.59511,-26.07839 0.38106,-21.54294 0.46261,-21.71761 9.71672,-20.81092 2.96585,0.29059 5.75632,0.89221 6.20106,1.33695 0.44473,0.44473 1.12121,9.59429 1.50328,20.33236 l 0.69468,19.52375 -2.39574,2.62226 c -2.45073,2.68246 -6.27662,3.73961 -11.12489,3.07399 z"
       id="path1" />
  </g>
</svg>
